# xmcd CD database file
#
# Track frame offsets:
#	150
#	3904
#	9026
#	13646
#	20420
#	27300
#	37625
#	39535
#	42453
#	56049
#	65094
#	70494
#	75581
#	81818
#	92027
#	101877
#	112532
#	139230
#	150620
#	157686
#	163227
#	168999
#	176227
#	180223
#	184743
#	194210
#	205458
#	211056
#	218187
#	224310
#	232613
#	241154
#	248872
#	254025
#	261375
#	270982
#
# Disc length: 3775 seconds
#
# Revision: 0
# Processed by: cddbd v1.5.2PL0 Copyright (c) Steve Scherf et al.
# Submitted via: CDex 2.08
#
DISCID=e60ebd24
DTITLE=Uwe Korn - Jazz on Classics
DYEAR=2005
DGENRE=Jazz
TTITLE0=Alla Turca
TTITLE1=Alla Turca Swing
TTITLE2=Sinfonie Nr. 40
TTITLE3=Salsa Sinfonica
TTITLE4=Eine Kleine Nachtmusik
TTITLE5=A Little Night Swing
TTITLE6=Non piu andai
TTITLE7=Figaro's Boogie
TTITLE8=Lacrimosa
TTITLE9=Lacrimosa Ballad
TTITLE10=Komm lieber Mai und mache
TTITLE11=Swinging Spring Song
TTITLE12=Fur Elise
TTITLE13=Dance for Eliza
TTITLE14=Sinfonie Nr. 5
TTITLE15=The Fifth
TTITLE16=Mondscheinsonate
TTITLE17=Moonlight Lament
TTITLE18=Menuett in G
TTITLE19=Minuet Boogie
TTITLE20=Klaviersonate Nr. 8 (Pathetique)
TTITLE21=Ballad on the Pathetique
TTITLE22=Ode an die Freude
TTITLE23=Joy Samba
TTITLE24=Schwanensee
TTITLE25=Swanee Lake
TTITLE26=Altes franzosisches Lied
TTITLE27=New French Song
TTITLE28=Blumenwalzer
TTITLE29=Jazz Waltz of the Flowers
TTITLE30=Romeo und Julia
TTITLE31=Bossa Nova of Love
TTITLE32=Neapolitanisches Lied
TTITLE33=Neapolitan Samba
TTITLE34=Klavierkonzert in Bb-Moll
TTITLE35=Concerto in Swing
EXTD=YEAR: 2005
EXTT0=
EXTT1=
EXTT2=
EXTT3=
EXTT4=
EXTT5=
EXTT6=
EXTT7=
EXTT8=
EXTT9=
EXTT10=
EXTT11=
EXTT12=
EXTT13=
EXTT14=
EXTT15=
EXTT16=
EXTT17=
EXTT18=
EXTT19=
EXTT20=
EXTT21=
EXTT22=
EXTT23=
EXTT24=
EXTT25=
EXTT26=
EXTT27=
EXTT28=
EXTT29=
EXTT30=
EXTT31=
EXTT32=
EXTT33=
EXTT34=
EXTT35=
PLAYORDER=
